<mxfile host="app.diagrams.net" modified="2023-06-15T04:13:08.282Z" agent="Mozilla/5.0 (Windows NT 10.0; Win64; x64; rv:109.0) Gecko/20100101 Firefox/114.0" etag="SsmOefuFRrCi8XvRIaxr" version="21.4.0" type="github" pages="2">
  <diagram name="Page-1" id="B1b4Kk_K3aIzqKwMmGGo">
    <mxGraphModel dx="700" dy="381" grid="1" gridSize="10" guides="1" tooltips="1" connect="1" arrows="1" fold="1" page="1" pageScale="1" pageWidth="850" pageHeight="1100" math="0" shadow="0">
      <root>
        <mxCell id="0" />
        <mxCell id="1" parent="0" />
        <mxCell id="AiorEY5EYVlcGgDcvZ3l-1" value="" style="html=1;verticalLabelPosition=bottom;labelBackgroundColor=#ffffff;verticalAlign=top;shadow=0;dashed=0;strokeWidth=1;shape=mxgraph.ios7.misc.iphone;strokeColor=#c0c0c0;" vertex="1" parent="1">
          <mxGeometry x="210" y="150" width="200" height="400" as="geometry" />
        </mxCell>
        <mxCell id="AiorEY5EYVlcGgDcvZ3l-3" value="" style="html=1;strokeWidth=1;shadow=0;dashed=0;shape=mxgraph.ios7ui.appBar;fillColor=#ffffff;gradientColor=none;sketch=0;hachureGap=4;pointerEvents=0;" vertex="1" parent="1">
          <mxGeometry x="223" y="209.99999999999997" width="175" height="15" as="geometry" />
        </mxCell>
        <mxCell id="AiorEY5EYVlcGgDcvZ3l-4" value="&lt;div&gt;AIS&lt;/div&gt;" style="shape=rect;sketch=0;align=left;fontSize=8;spacingLeft=24;fontSize=4;fontColor=#aaaaaa;strokeColor=none;fillColor=none;spacingTop=4;hachureGap=4;pointerEvents=0;html=1;" vertex="1" parent="AiorEY5EYVlcGgDcvZ3l-3">
          <mxGeometry y="0.5" width="50" height="13" relative="1" as="geometry">
            <mxPoint y="-7" as="offset" />
          </mxGeometry>
        </mxCell>
        <mxCell id="AiorEY5EYVlcGgDcvZ3l-5" value="11:55PM" style="shape=rect;sketch=0;fontSize=8;fontColor=#aaaaaa;strokeColor=none;fillColor=none;spacingTop=4;hachureGap=4;pointerEvents=0;html=1;" vertex="1" parent="AiorEY5EYVlcGgDcvZ3l-3">
          <mxGeometry x="0.5" y="0.5" width="50" height="13" relative="1" as="geometry">
            <mxPoint x="-30" y="-6.5" as="offset" />
          </mxGeometry>
        </mxCell>
        <mxCell id="AiorEY5EYVlcGgDcvZ3l-7" value="Login" style="text;html=1;strokeColor=none;fillColor=none;align=center;verticalAlign=middle;whiteSpace=wrap;rounded=0;" vertex="1" parent="1">
          <mxGeometry x="280" y="250" width="60" height="30" as="geometry" />
        </mxCell>
        <mxCell id="AiorEY5EYVlcGgDcvZ3l-8" value="&lt;div align=&quot;left&quot;&gt;&lt;font style=&quot;font-size: 5px;&quot; color=&quot;#696969&quot;&gt;Username/Email&lt;/font&gt;&lt;font color=&quot;#696969&quot;&gt;&lt;br&gt;&lt;/font&gt;&lt;/div&gt;" style="rounded=0;whiteSpace=wrap;html=1;strokeColor=#ADADAD;gradientColor=none;fillColor=#BABABA;align=left;" vertex="1" parent="1">
          <mxGeometry x="240" y="320" width="120" height="20" as="geometry" />
        </mxCell>
        <mxCell id="AiorEY5EYVlcGgDcvZ3l-9" value="&lt;font color=&quot;#696969&quot;&gt;Password&lt;/font&gt;" style="rounded=0;whiteSpace=wrap;html=1;strokeColor=#ADADAD;gradientColor=none;fillColor=#BABABA;align=left;" vertex="1" parent="1">
          <mxGeometry x="240" y="350" width="120" height="20" as="geometry" />
        </mxCell>
        <mxCell id="AiorEY5EYVlcGgDcvZ3l-12" value="&lt;font style=&quot;font-size: 2px;&quot;&gt;Login&lt;/font&gt;" style="rounded=1;whiteSpace=wrap;html=1;" vertex="1" parent="1">
          <mxGeometry x="240" y="390" width="40" height="20" as="geometry" />
        </mxCell>
        <mxCell id="AiorEY5EYVlcGgDcvZ3l-15" value="Forgot" style="rounded=1;whiteSpace=wrap;html=1;" vertex="1" parent="1">
          <mxGeometry x="320" y="390" width="40" height="20" as="geometry" />
        </mxCell>
        <mxCell id="VrmbUzClfCKkQYE4ObG8-1" value="No account? &lt;a href=&quot;data:page/id,QofEGmKyUvnmnp4F5BND&quot;&gt;Sign up...&lt;/a&gt;" style="text;html=1;strokeColor=none;fillColor=none;align=center;verticalAlign=middle;whiteSpace=wrap;rounded=0;" vertex="1" parent="1">
          <mxGeometry x="220" y="440" width="160" height="30" as="geometry" />
        </mxCell>
        <mxCell id="_MKB6CZbyiuSc55Uqn0p-1" value="" style="html=1;verticalLabelPosition=bottom;labelBackgroundColor=#ffffff;verticalAlign=top;shadow=0;dashed=0;strokeWidth=1;shape=mxgraph.ios7ui.onOffButton;buttonState=off;strokeColor=#38D145;strokeColor2=#aaaaaa;fillColor=#38D145;fillColor2=#ffffff;" vertex="1" parent="1">
          <mxGeometry x="295" y="373.25" width="10" height="7.5" as="geometry" />
        </mxCell>
        <mxCell id="_MKB6CZbyiuSc55Uqn0p-2" value="&lt;font style=&quot;font-size: 5px;&quot;&gt;Show/Hide&lt;/font&gt;" style="text;html=1;strokeColor=none;fillColor=none;align=center;verticalAlign=middle;whiteSpace=wrap;rounded=0;" vertex="1" parent="1">
          <mxGeometry x="320" y="366.75" width="35" height="14" as="geometry" />
        </mxCell>
        <mxCell id="_MKB6CZbyiuSc55Uqn0p-3" value="" style="verticalLabelPosition=bottom;shadow=0;dashed=0;align=center;html=1;verticalAlign=top;strokeWidth=1;shape=mxgraph.mockup.containers.userMale;strokeColor=#666666;strokeColor2=#008cff;" vertex="1" parent="1">
          <mxGeometry x="290" y="275" width="40" height="40" as="geometry" />
        </mxCell>
      </root>
    </mxGraphModel>
  </diagram>
  <diagram id="QofEGmKyUvnmnp4F5BND" name="Page-2">
    <mxGraphModel dx="1434" dy="782" grid="1" gridSize="10" guides="1" tooltips="1" connect="1" arrows="1" fold="1" page="1" pageScale="1" pageWidth="850" pageHeight="1100" math="0" shadow="0">
      <root>
        <mxCell id="0" />
        <mxCell id="1" parent="0" />
        <mxCell id="nNPtd8aBsyoqaADxjZ4j-1" value="" style="html=1;verticalLabelPosition=bottom;labelBackgroundColor=#ffffff;verticalAlign=top;shadow=0;dashed=0;strokeWidth=1;shape=mxgraph.ios7.misc.iphone;strokeColor=#c0c0c0;" vertex="1" parent="1">
          <mxGeometry x="210" y="150" width="200" height="400" as="geometry" />
        </mxCell>
        <mxCell id="nNPtd8aBsyoqaADxjZ4j-2" value="" style="html=1;strokeWidth=1;shadow=0;dashed=0;shape=mxgraph.ios7ui.appBar;fillColor=#ffffff;gradientColor=none;sketch=0;hachureGap=4;pointerEvents=0;" vertex="1" parent="1">
          <mxGeometry x="223" y="209.99999999999997" width="175" height="15" as="geometry" />
        </mxCell>
        <mxCell id="nNPtd8aBsyoqaADxjZ4j-3" value="&lt;div&gt;AIS&lt;/div&gt;" style="shape=rect;sketch=0;align=left;fontSize=8;spacingLeft=24;fontSize=4;fontColor=#aaaaaa;strokeColor=none;fillColor=none;spacingTop=4;hachureGap=4;pointerEvents=0;html=1;" vertex="1" parent="nNPtd8aBsyoqaADxjZ4j-2">
          <mxGeometry y="0.5" width="50" height="13" relative="1" as="geometry">
            <mxPoint y="-7" as="offset" />
          </mxGeometry>
        </mxCell>
        <mxCell id="nNPtd8aBsyoqaADxjZ4j-4" value="11:55PM" style="shape=rect;sketch=0;fontSize=8;fontColor=#aaaaaa;strokeColor=none;fillColor=none;spacingTop=4;hachureGap=4;pointerEvents=0;html=1;" vertex="1" parent="nNPtd8aBsyoqaADxjZ4j-2">
          <mxGeometry x="0.5" y="0.5" width="50" height="13" relative="1" as="geometry">
            <mxPoint x="-30" y="-6.5" as="offset" />
          </mxGeometry>
        </mxCell>
        <mxCell id="nNPtd8aBsyoqaADxjZ4j-5" value="&lt;div&gt;Sign Up&lt;/div&gt;" style="text;html=1;strokeColor=none;fillColor=none;align=center;verticalAlign=middle;whiteSpace=wrap;rounded=0;" vertex="1" parent="1">
          <mxGeometry x="280" y="250" width="60" height="30" as="geometry" />
        </mxCell>
        <mxCell id="nNPtd8aBsyoqaADxjZ4j-6" value="&lt;div align=&quot;left&quot;&gt;&lt;font style=&quot;font-size: 5px;&quot; color=&quot;#696969&quot;&gt;Email&lt;/font&gt;&lt;font color=&quot;#696969&quot;&gt;&lt;br&gt;&lt;/font&gt;&lt;/div&gt;" style="rounded=0;whiteSpace=wrap;html=1;strokeColor=#ADADAD;gradientColor=none;fillColor=#BABABA;align=left;" vertex="1" parent="1">
          <mxGeometry x="240" y="290" width="120" height="20" as="geometry" />
        </mxCell>
        <mxCell id="nNPtd8aBsyoqaADxjZ4j-7" value="&lt;font color=&quot;#696969&quot;&gt;Retype Password&lt;br&gt;&lt;/font&gt;" style="rounded=0;whiteSpace=wrap;html=1;strokeColor=#ADADAD;gradientColor=none;fillColor=#BABABA;align=left;" vertex="1" parent="1">
          <mxGeometry x="240" y="350" width="120" height="20" as="geometry" />
        </mxCell>
        <mxCell id="nNPtd8aBsyoqaADxjZ4j-8" value="Sign up" style="rounded=1;whiteSpace=wrap;html=1;" vertex="1" parent="1">
          <mxGeometry x="240" y="384" width="50" height="20" as="geometry" />
        </mxCell>
        <mxCell id="nNPtd8aBsyoqaADxjZ4j-9" value="" style="html=1;verticalLabelPosition=bottom;labelBackgroundColor=#ffffff;verticalAlign=top;shadow=0;dashed=0;strokeWidth=1;shape=mxgraph.ios7ui.onOffButton;buttonState=off;strokeColor=#38D145;strokeColor2=#aaaaaa;fillColor=#38D145;fillColor2=#ffffff;" vertex="1" parent="1">
          <mxGeometry x="295" y="373.25" width="10" height="7.5" as="geometry" />
        </mxCell>
        <mxCell id="nNPtd8aBsyoqaADxjZ4j-11" value="&lt;font style=&quot;font-size: 5px;&quot;&gt;Show/Hide&lt;/font&gt;" style="text;html=1;strokeColor=none;fillColor=none;align=center;verticalAlign=middle;whiteSpace=wrap;rounded=0;" vertex="1" parent="1">
          <mxGeometry x="320" y="366.75" width="35" height="14" as="geometry" />
        </mxCell>
        <mxCell id="tKPiHIES2GfdTVbbfaAv-1" value="&lt;div&gt;Already Have an Account?&lt;/div&gt;&lt;div&gt;&lt;a href=&quot;data:page/id,B1b4Kk_K3aIzqKwMmGGo&quot;&gt;Login...&lt;/a&gt;&lt;br&gt;&lt;/div&gt;" style="text;html=1;strokeColor=none;fillColor=none;align=center;verticalAlign=middle;whiteSpace=wrap;rounded=0;" vertex="1" parent="1">
          <mxGeometry x="230" y="440" width="160" height="30" as="geometry" />
        </mxCell>
        <mxCell id="tKPiHIES2GfdTVbbfaAv-2" value="&lt;font color=&quot;#696969&quot;&gt;Password&lt;/font&gt;" style="rounded=0;whiteSpace=wrap;html=1;strokeColor=#ADADAD;gradientColor=none;fillColor=#BABABA;align=left;" vertex="1" parent="1">
          <mxGeometry x="240" y="320" width="120" height="20" as="geometry" />
        </mxCell>
        <mxCell id="FhanYxhWiHUCCw9zTMnb-1" value="" style="html=1;verticalLabelPosition=bottom;labelBackgroundColor=#ffffff;verticalAlign=top;shadow=0;dashed=0;strokeWidth=1;shape=mxgraph.ios7ui.onOffButton;buttonState=off;strokeColor=#38D145;strokeColor2=#aaaaaa;fillColor=#38D145;fillColor2=#ffffff;" vertex="1" parent="1">
          <mxGeometry x="295" y="342.5" width="10" height="7.5" as="geometry" />
        </mxCell>
        <mxCell id="FhanYxhWiHUCCw9zTMnb-2" value="&lt;font style=&quot;font-size: 5px;&quot;&gt;Show/Hide&lt;/font&gt;" style="text;html=1;strokeColor=none;fillColor=none;align=center;verticalAlign=middle;whiteSpace=wrap;rounded=0;" vertex="1" parent="1">
          <mxGeometry x="320" y="336" width="35" height="14" as="geometry" />
        </mxCell>
      </root>
    </mxGraphModel>
  </diagram>
</mxfile>
